<svg width="400" height="400" viewBox="0 0 400 400" fill="none" xmlns="http://www.w3.org/2000/svg">
  <defs>
    <radialGradient id="bg" cx="50%" cy="45%" r="60%">
      <stop offset="0%" stop-color="#0f7bff" stop-opacity="0.65"/>
      <stop offset="70%" stop-color="#041633" stop-opacity="0.9"/>
      <stop offset="100%" stop-color="#010812" stop-opacity="1"/>
    </radialGradient>
    <filter id="shadow" x="-50%" y="-50%" width="200%" height="200%">
      <feGaussianBlur in="SourceAlpha" stdDeviation="20" result="blur"/>
      <feOffset dy="8" result="offsetBlur"/>
      <feComponentTransfer>
        <feFuncA type="linear" slope="0.4"/>
      </feComponentTransfer>
      <feMerge>
        <feMergeNode in="offsetBlur"/>
        <feMergeNode in="SourceGraphic"/>
      </feMerge>
    </filter>
  </defs>
  <rect width="400" height="400" rx="48" fill="url(#bg)"/>
  <g filter="url(#shadow)" transform="translate(18 40) scale(0.9)">
    <path d="M80 200 C120 130, 200 120, 260 160 C220 190, 150 210, 110 270" fill="#00a8ff" stroke="none" stroke-linecap="round" stroke-linejoin="round"/>
    <path d="M110 260 C150 200, 220 190, 270 230 C210 260, 150 280, 120 310 Z" fill="#08c9ff"/>
    <ellipse cx="120" cy="300" rx="80" ry="18" fill="#000a1f" opacity="0.45"/>
    <circle cx="220" cy="140" r="52" fill="#00b6ff"/>
    <circle cx="140" cy="140" r="52" fill="#00b6ff"/>
    <circle cx="140" cy="140" r="34" fill="#071533"/>
    <circle cx="220" cy="140" r="34" fill="#071533"/>
    <circle cx="130" cy="130" r="10" fill="#fefefe"/>
    <circle cx="210" cy="130" r="10" fill="#fefefe"/>
    <path d="M150 195 C180 215, 200 215, 230 195" stroke="#040b1a" stroke-width="9" stroke-linecap="round" fill="none"/>
  </g>
</svg>

